<svg xmlns="http://www.w3.org/2000/svg"  viewBox="0 0 24 24">
    <style>
    svg {color: gray}
    </style>
    <path stroke="currentColor" stroke-width="0.8" fill="currentColor" d="M21.36 2.16a.96.96 0 0 1 .96.96v.48H1.68v-.48a.96.96 0 0 1 .96-.96zM9.84 2.16V.96a.24.24 0 0 1 .24-.24h3.84a.24.24 0 0 1 .24.24v1.2"/><path stroke="currentColor" stroke-width="0.8" fill="none" d="M17.82 22.68a1.44 1.44 0 0 0 1.43-1.24L21.6 4.68H2.4l2.35 16.76a1.44 1.44 0 0 0 1.43 1.24z"/><path stroke="currentColor" stroke-width="0.8" stroke-linecap="round" d="M12 7.2v12.96M7.2 7.2l.96 12.96M16.8 7.2l-.96 12.96"/>
</svg>