<svg xmlns="http://www.w3.org/2000/svg" viewBox="0 0 24 24" fill="gray">
    <!-- <rect x="0" y="0" width="24" height="24" fill="white" stroke="none"/> -->
    <path d="M23.5 13.9a0.3 0.3 0 0 0 0.3 -0.3v-3.2a0.3 0.3 0 0 0 -0.3 -0.3h-1.12a2.4 2.4 0 0 1 -1.7 -4.1l0.79 -0.79a0.3 0.3 0 0 0 0 -0.42l-2.26 -2.26a0.3 0.3 0 0 0 -0.42 0l-0.79 0.79a2.4 2.4 0 0 1 -4.1 -1.7v-1.12a0.3 0.3 0 0 0 -0.3 -0.3h-3.2a0.3 0.3 0 0 0 -0.3 0.3v1.12a2.4 2.4 0 0 1 -4.1 1.7l-0.79 -0.79a0.3 0.3 0 0 0 -0.42 0l-2.26 2.26a0.3 0.3 0 0 0 0 0.42l0.79 0.79a2.4 2.4 0 0 1 -1.7 4.1h-1.12a0.3 0.3 0 0 0 -0.3 0.3v3.2a0.3 0.3 0 0 0 0.3 0.3h1.12a2.4 2.4 0 0 1 1.7 4.1l-0.79 0.79a0.3 0.3 0 0 0 0 0.42l2.26 2.26a0.3 0.3 0 0 0 0.42 0l0.79 -0.79a2.4 2.4 0 0 1 4.1 1.7v1.12a0.3 0.3 0 0 0 0.3 0.3h3.2a0.3 0.3 0 0 0 0.3 -0.3v-1.12a2.4 2.4 0 0 1 1.02 -1.96a0.3 0.3 0 0 0 0.04 -0.46l-2.48 -2.48a0.3 0.3 0 0 0 -.22 -0.09a5.4 5.4 0 1 1 5.13 -5.13a0.3 0.3 0 0 0 0.09 0.22l2.48 2.48a0.3 0.3 0 0 0 0.46 -0.04a2.4 2.4 0 0 1 1.96 -1.02Z" stroke="none"/><path d="M13.6 15.97l4.95 5.82a2.3 2.3 0 1 0 3.24 -3.24l-5.82 -4.95a0.8 0.8 0 0 1 -0.26 -0.78a3.8 3.8 0 0 0 -4.57 -4.52a0.4 0.4 0 0 0 -0.19 0.67l1.51 1.51a1.4 1.4 0 0 1 -1.98 1.98l-1.51 -1.51a0.4 0.4 0 0 0 -0.67 0.19a3.8 3.8 0 0 0 4.52 4.57a0.8 0.8 0 0 1 0.78 0.26Z" stroke="none"/>
</svg>
